<svg xmlns="http://www.w3.org/2000/svg" width="17.445" height="20.08" viewBox="0 0 17.445 20.08">
  <path id="Icon_simple-tiktok" data-name="Icon simple-tiktok" d="M11.531.017C12.627,0,13.715.008,14.8,0a5.211,5.211,0,0,0,1.464,3.489,5.9,5.9,0,0,0,3.547,1.5V8.358A8.955,8.955,0,0,1,16.3,7.547a10.337,10.337,0,0,1-1.355-.778c-.008,2.443.008,4.886-.017,7.321a6.391,6.391,0,0,1-1.13,3.3,6.233,6.233,0,0,1-4.945,2.686A6.1,6.1,0,0,1,5.44,19.21a6.309,6.309,0,0,1-3.054-4.777c-.017-.418-.025-.837-.008-1.247A6.3,6.3,0,0,1,9.682,7.6c.017,1.238-.033,2.477-.033,3.715a2.871,2.871,0,0,0-3.665,1.774,3.319,3.319,0,0,0-.117,1.347,2.848,2.848,0,0,0,2.928,2.4,2.811,2.811,0,0,0,2.318-1.347,1.93,1.93,0,0,0,.343-.887c.084-1.5.05-2.987.059-4.485.008-3.372-.008-6.735.017-10.1Z" transform="translate(-2.369)" fill="#fff"/>
</svg>
