<svg xmlns="http://www.w3.org/2000/svg" width="22.49" height="22.485" viewBox="0 0 22.49 22.485">
  <path id="Icon_awesome-instagram" data-name="Icon awesome-instagram" d="M11.242,7.715a5.765,5.765,0,1,0,5.765,5.765A5.756,5.756,0,0,0,11.242,7.715Zm0,9.513A3.748,3.748,0,1,1,14.99,13.48a3.755,3.755,0,0,1-3.748,3.748ZM18.588,7.48a1.345,1.345,0,1,1-1.345-1.345A1.342,1.342,0,0,1,18.588,7.48Zm3.818,1.365A6.654,6.654,0,0,0,20.59,4.133a6.7,6.7,0,0,0-4.711-1.816c-1.856-.105-7.421-.105-9.277,0A6.689,6.689,0,0,0,1.89,4.128,6.676,6.676,0,0,0,.074,8.839c-.105,1.856-.105,7.421,0,9.277A6.654,6.654,0,0,0,1.89,22.828,6.707,6.707,0,0,0,6.6,24.644c1.856.105,7.421.105,9.277,0a6.654,6.654,0,0,0,4.711-1.816,6.7,6.7,0,0,0,1.816-4.711c.105-1.856.105-7.416,0-9.272Zm-2.4,11.264a3.8,3.8,0,0,1-2.137,2.137c-1.48.587-4.992.452-6.628.452s-5.153.13-6.628-.452a3.8,3.8,0,0,1-2.137-2.137c-.587-1.48-.452-4.992-.452-6.628s-.13-5.153.452-6.628A3.8,3.8,0,0,1,4.614,4.715c1.48-.587,4.992-.452,6.628-.452s5.153-.13,6.628.452a3.8,3.8,0,0,1,2.137,2.137c.587,1.48.452,4.992.452,6.628S20.595,18.633,20.008,20.108Z" transform="translate(0.005 -2.238)" fill="#fff"/>
</svg>
