<svg xmlns="http://www.w3.org/2000/svg" width="20.246" height="20.246" viewBox="0 0 20.246 20.246">
  <path id="Icon_awesome-whatsapp" data-name="Icon awesome-whatsapp" d="M17.213,5.192A10.036,10.036,0,0,0,1.424,17.3L0,22.5l5.319-1.4a10,10,0,0,0,4.795,1.22h0A10.129,10.129,0,0,0,20.246,12.287,10.072,10.072,0,0,0,17.213,5.192ZM10.118,20.629A8.324,8.324,0,0,1,5.87,19.468l-.3-.181-3.154.827.841-3.078-.2-.316a8.355,8.355,0,1,1,15.5-4.433,8.432,8.432,0,0,1-8.433,8.342Zm4.573-6.245c-.249-.127-1.482-.732-1.713-.813s-.4-.127-.565.127-.646.813-.8.985-.294.19-.542.063a6.824,6.824,0,0,1-3.412-2.983c-.258-.443.258-.411.737-1.369a.465.465,0,0,0-.023-.438c-.063-.127-.565-1.36-.773-1.862s-.411-.42-.565-.429-.312-.009-.479-.009a.929.929,0,0,0-.669.312,2.817,2.817,0,0,0-.877,2.092,4.911,4.911,0,0,0,1.021,2.594,11.2,11.2,0,0,0,4.284,3.787,4.905,4.905,0,0,0,3.01.628,2.568,2.568,0,0,0,1.69-1.193,2.1,2.1,0,0,0,.145-1.193C15.107,14.569,14.94,14.506,14.692,14.384Z" transform="translate(0 -2.25)" fill="#fff"/>
</svg>
